<svg width="1318" height="1394" viewBox="0 0 1318 1394" fill="none" xmlns="http://www.w3.org/2000/svg">
<path d="M397.827 144.558C397.161 3.80548 578.85 -53.1335 658.634 62.8244L772.688 228.592C808.258 280.29 873.378 302.757 933.26 283.991L1130.98 222.028C1261.42 181.151 1369.36 329.043 1290.67 440.81L1159.84 626.62C1125.4 675.534 1125.05 740.718 1158.96 790.002L1285.6 974.07C1364.54 1088.8 1249.59 1237.21 1118.77 1189.46L939.068 1123.87C878.354 1101.71 810.324 1123.03 773.115 1175.88L662.986 1332.3C582.81 1446.17 403.721 1389.91 403.062 1250.65L402.005 1027.22C401.722 967.399 364.231 914.076 308.034 893.565L94.5612 815.654C-33.8457 768.79 -29.6115 585.742 100.825 544.865L298.545 482.903C358.426 464.136 399.076 408.522 398.779 345.77L397.827 144.558Z" fill="#3A3A72"/>
</svg>
