<svg width="1390" height="1074" viewBox="0 0 1390 1074" fill="none" xmlns="http://www.w3.org/2000/svg">
<path d="M349.525 138.217C355.075 -5.49061 545.436 -52.0221 616.654 72.9206L669.697 165.978C701.313 221.445 765.868 249.234 827.887 234.074L954.756 203.062C1084.97 171.232 1183.48 319.964 1103.36 427.439L997.977 568.805C964.013 614.366 960.25 675.716 988.392 725.086L1068.22 865.132C1137.77 987.155 1008.12 1125.85 881.69 1064.66L801.842 1026.02C740.119 996.151 665.881 1014.3 624.898 1069.27L571.881 1140.39C487.936 1253 308.918 1189.76 314.338 1049.41L320.558 888.33C322.751 831.545 291.111 778.85 239.959 754.094L81.2452 677.283C-39.4181 618.887 -20.633 441.485 109.584 409.654L236.454 378.643C298.472 363.483 342.928 309.048 345.392 245.251L349.525 138.217Z" fill="#FFFDEE"/>
<path d="M1826.45 2689.14C1832 2545.43 2022.36 2498.9 2093.58 2623.84L2146.63 2716.9C2178.24 2772.37 2242.8 2800.16 2304.82 2785L2431.68 2753.99C2561.9 2722.16 2660.41 2870.89 2580.29 2978.36L2474.91 3119.73C2440.94 3165.29 2437.18 3226.64 2465.32 3276.01L2545.15 3416.06C2614.7 3538.08 2485.04 3676.77 2358.62 3615.59L2278.77 3576.95C2217.05 3547.07 2142.81 3565.22 2101.83 3620.2L2048.81 3691.32C1964.86 3803.93 1785.85 3740.68 1791.27 3600.33L1797.49 3439.25C1799.68 3382.47 1768.04 3329.77 1716.89 3305.02L1558.17 3228.21C1437.51 3169.81 1456.3 2992.41 1586.51 2960.58L1713.38 2929.57C1775.4 2914.41 1819.86 2859.97 1822.32 2796.17L1826.45 2689.14Z" fill="#FFFDEE"/>
</svg>
